<svg width="117" height="40" viewBox="0 0 117 40" fill="none" xmlns="http://www.w3.org/2000/svg">
  <path
    d="M0 7.87196C0 3.5244 3.5244 0 7.87196 0H32.1234C36.471 0 39.9954 3.5244 39.9954 7.87196V32.1234C39.9954 36.471 36.471 39.9954 32.1234 39.9954H7.87196C3.5244 39.9954 0 36.471 0 32.1234V7.87196Z"
    fill="#13131A" />
  <path d="M10.7772 8.13086H7.20764L7.20764 17.9872H10.7772L10.7772 8.13086Z" fill="#FFA621" />
  <path d="M32.8015 22.0049H29.2319V31.8612H32.8015V22.0049Z" fill="#269574" />
  <path
    d="M13.3316 13.2609C15.114 11.4616 17.4842 10.4702 20.0038 10.4702C22.5234 10.4702 24.8937 11.4616 26.676 13.2609C27.9801 14.5774 28.855 16.2095 29.2306 17.9875H32.8C32.3847 15.2604 31.1296 12.7428 29.1583 10.7551C26.7157 8.28465 23.4636 6.92578 20.0038 6.92578C16.5441 6.92578 13.2943 8.28465 10.8494 10.7551C8.87803 12.7428 7.6229 15.2604 7.20764 17.9875H10.777C11.1526 16.2095 12.0275 14.5774 13.3316 13.2609Z"
    fill="#FFA621" />
  <path
    d="M26.6784 26.7315C24.896 28.5308 22.5257 29.5223 20.0062 29.5223C17.4866 29.5223 15.1163 28.5308 13.3339 26.7315C12.0298 25.415 11.155 23.783 10.7794 22.0049H7.20764C7.6229 24.732 8.87803 27.2496 10.8494 29.2373C13.2943 31.7054 16.5464 33.0666 20.0062 33.0666C23.4659 33.0666 26.7157 31.7078 29.1629 29.2373C31.1319 27.2496 32.3894 24.732 32.8047 22.0049H29.2353C28.8597 23.783 27.9848 25.415 26.6807 26.7315H26.6784Z"
    fill="#269574" />
  <path d="M91.3423 19.1133H88.8248V21.2354H91.3423V19.1133Z" fill="#13131A" />
  <path d="M91.3404 22.4834H88.8248V32.832H91.3404V22.4834Z" fill="#13131A" />
  <path
    d="M53.4385 29.1166H53.3984L50.7369 22.4834H47.8893L52.0677 32.0144L50.568 35.4581H53.1151C53.3183 34.9814 53.533 34.4758 53.7619 33.9356C54.2885 32.6904 57.5282 25.0749 58.6386 22.4863H56.0085L53.4414 29.1195L53.4385 29.1166Z"
    fill="#13131A" />
  <path
    d="M75.6224 29.491C75.5795 29.7828 75.5137 30.0283 75.4192 30.2306C75.3248 30.4328 75.2017 30.5888 75.0443 30.6986C74.8869 30.8084 74.6952 30.8604 74.4662 30.8604C74.0369 30.8604 73.7393 30.6957 73.5733 30.3606C73.4073 30.0283 73.3243 29.5343 73.3243 28.8756V24.5825H76.8616V22.4821H73.3243V20.1709H71.6129C71.5986 20.402 71.5814 20.6216 71.5557 20.818C71.5013 21.2687 71.4097 21.6414 71.2866 21.9303C71.1607 22.2192 71.0033 22.433 70.8087 22.5659C70.6141 22.6988 70.3794 22.7653 70.1018 22.7653H69.6639V24.5796H70.8087V28.7774C70.8087 29.3292 70.8574 29.8636 70.9547 30.3779C71.052 30.8921 71.2237 31.3457 71.4755 31.7415C71.7245 32.1373 72.0708 32.4522 72.5087 32.692C73.3472 33.1456 74.5435 33.1629 75.4364 32.874C76.1318 32.6487 76.7128 32.1431 77.0476 31.4902C77.2022 31.1868 77.3253 30.8661 77.4111 30.531C77.497 30.1959 77.5571 29.8521 77.5885 29.5025C77.62 29.1529 77.6343 28.8207 77.6343 28.5058H75.6825C75.6825 28.8698 75.6625 29.1963 75.6196 29.4881L75.6224 29.491Z"
    fill="#13131A" />
  <path
    d="M84.2988 22.5587C84.2988 22.5587 84.2702 22.5702 84.2587 22.576C83.9811 22.7031 83.7322 22.862 83.5118 23.0498C82.8364 23.6507 82.5073 24.5059 82.347 25.1675H82.1953V22.4807H79.8142V32.8292H82.3413V28.201C82.3413 27.6752 82.4128 27.2072 82.5559 26.794C82.699 26.3809 82.9194 26.0284 83.2199 25.7395C83.5204 25.4506 83.9067 25.2282 84.3732 25.0722C84.8397 24.919 85.4006 24.841 86.0532 24.841V22.2178C85.4979 22.2178 85.0086 22.2929 84.5821 22.4431C84.4848 22.4778 84.3933 22.5153 84.3017 22.5558L84.2988 22.5587Z"
    fill="#13131A" />
  <path
    d="M50.4135 12.0195C50.4135 11.6266 50.4679 11.2568 50.5795 10.9072C50.6911 10.5577 50.8456 10.2543 51.0431 9.99431C51.2406 9.7343 51.4752 9.53206 51.7443 9.38183C52.5456 8.93692 53.6646 9.08137 54.3629 9.65629C54.9925 10.1734 55.1242 11.0633 55.1242 11.8317V17.5636H57.6398V11.4013C57.6398 10.7859 57.5797 10.2052 57.4566 9.66496C57.3336 9.12471 57.1418 8.6509 56.8757 8.24933C55.6794 6.44367 52.6601 6.48701 51.3035 8.04998C51.0145 8.38222 50.6453 8.88203 50.4364 9.38183H50.2704V7.21505H47.8893V17.5607H50.4163V12.0195H50.4135Z"
    fill="#13131A" />
  <path
    d="M86.0329 8.24634C84.8367 6.44076 81.8175 6.4841 80.461 8.047C80.1834 8.36479 79.8343 8.83857 79.6225 9.31524C79.5023 8.91657 79.3392 8.55834 79.1331 8.24634C77.9369 6.44076 74.9177 6.4841 73.5613 8.047C73.2722 8.37923 72.903 8.87901 72.6941 9.3788H72.5253V7.21211H70.1443V17.5602H72.6712V12.0193C72.6712 11.6264 72.7256 11.2566 72.8372 10.907C72.9488 10.5575 73.1034 10.2541 73.3008 9.99414C73.4983 9.73414 73.733 9.53191 74.002 9.38169C74.8004 8.93679 75.9222 9.08124 76.6205 9.65613C77.2501 10.1733 77.3817 11.063 77.3817 11.8315V17.5631H79.8972V11.401C79.8972 11.2913 79.8972 11.1844 79.8915 11.0804C79.8772 10.6961 79.9659 10.3061 80.1977 9.99992C80.1977 9.99992 80.1977 9.99703 80.2006 9.99414C80.398 9.73414 80.6327 9.53191 80.9017 9.38169C81.7002 8.93679 82.822 9.08124 83.5203 9.65613C84.1498 10.1733 84.2815 11.063 84.2815 11.8315V17.5631L86.797 17.5631V11.401C86.797 10.7857 86.7369 10.205 86.6138 9.6648C86.4908 9.12457 86.299 8.65079 86.03 8.24923L86.0329 8.24634Z"
    fill="#13131A" />
  <path
    d="M104.718 8.24634C103.521 6.44076 100.502 6.4841 99.1458 8.047C98.8682 8.36479 98.5191 8.83857 98.3073 9.31524C98.1871 8.91657 98.024 8.55834 97.818 8.24634C96.6217 6.44076 93.6026 6.4841 92.2461 8.047C91.957 8.37923 91.5879 8.87901 91.3789 9.3788H91.2101V7.21211H88.8291V17.5602H91.3561V12.0193C91.3561 11.6264 91.4104 11.2566 91.522 10.907C91.6336 10.5575 91.7882 10.2541 91.9856 9.99414C92.1831 9.73414 92.4178 9.53191 92.6868 9.38169C93.4881 8.93679 94.607 9.08124 95.3053 9.65613C95.9349 10.1733 96.0665 11.063 96.0665 11.8315V17.5631H98.5821V11.401C98.5821 11.2913 98.5821 11.1844 98.5763 11.0804C98.562 10.6961 98.6507 10.3061 98.8825 9.99992C98.8825 9.99992 98.8825 9.99703 98.8854 9.99414C99.0829 9.73414 99.3175 9.53191 99.5865 9.38169C100.388 8.93679 101.507 9.08124 102.205 9.65613C102.835 10.1733 102.966 11.063 102.966 11.8315V17.5631L105.482 17.5631V11.401C105.482 10.7857 105.422 10.205 105.299 9.6648C105.176 9.12457 104.984 8.65079 104.718 8.24923V8.24634Z"
    fill="#13131A" />
  <path
    d="M67.4586 8.0519C67.1066 7.69077 66.6744 7.4192 66.1621 7.23141C65.6527 7.04651 65.0746 6.95117 64.4278 6.95117C63.781 6.95117 62.8137 7.0494 62.3014 7.24585C61.7891 7.44231 61.3541 7.70521 61.005 8.03456C60.653 8.36391 60.3925 8.74527 60.2122 9.18151C60.0348 9.61487 59.9461 10.0771 59.9461 10.5596H62.227C62.227 10.3631 62.2671 10.1696 62.3472 9.98178C62.4273 9.79399 62.5418 9.62354 62.6906 9.47042C62.8395 9.3173 63.0198 9.19885 63.2344 9.10351C63.4462 9.00817 64.03 8.96195 64.2933 8.96195C64.5566 8.96195 64.797 8.99662 65.0116 9.06595C65.2263 9.13529 65.4095 9.25663 65.5583 9.42997C65.7071 9.60332 65.8244 9.83155 65.9074 10.1176C65.9904 10.4065 66.0333 10.7676 66.0333 11.201V11.4436C65.1719 11.4436 64.0128 11.4899 63.2401 11.5852C62.4674 11.6805 61.792 11.8568 61.2082 12.1226C60.6243 12.3855 60.1636 12.7524 59.823 13.2204C59.4825 13.6913 59.3136 14.3038 59.3136 15.0607C59.3136 15.5085 59.3909 15.9072 59.5483 16.2539C59.7028 16.6006 59.9203 16.8924 60.1951 17.1264C60.4698 17.3604 60.7961 17.5395 61.1738 17.6609C61.5545 17.7851 61.9609 17.8458 62.3987 17.8458C63.2373 17.8458 64.1473 17.7735 64.8571 17.2766C65.169 17.0571 65.4266 16.7681 65.6298 16.4446C65.6727 16.3752 66.0162 15.5836 66.0248 15.5836H66.1707V17.5829H68.5547V11.253C68.5547 10.5509 68.4602 9.93267 68.2742 9.39819C68.0853 8.86083 67.8163 8.41303 67.4614 8.0519H67.4586ZM65.8759 14.1073C65.7701 14.4685 65.6212 14.7834 65.4209 15.0492C65.2234 15.315 64.8857 15.523 64.6024 15.6761C64.3191 15.8292 63.7438 15.9101 63.3746 15.9101C62.9081 15.9101 62.5504 15.7917 62.3014 15.5576C62.0524 15.3236 61.9265 15.0203 61.9265 14.6476C61.9265 14.2749 62.0238 14.0004 62.2242 13.7751C62.4216 13.5498 62.6906 13.3764 63.0369 13.2551C63.3804 13.1337 64.1245 13.0499 64.5795 13.0066C65.0345 12.9633 65.5182 12.9431 66.0333 12.9431C66.0333 13.3562 65.9818 13.7433 65.8788 14.1044L65.8759 14.1073Z"
    fill="#13131A" />
  <path
    d="M67.4586 23.3097C67.1066 22.9486 66.6744 22.677 66.1621 22.4892C65.6527 22.3043 65.0746 22.209 64.4278 22.209C63.781 22.209 62.8137 22.3072 62.3014 22.5037C61.7891 22.7001 61.3541 22.963 61.005 23.2924C60.6558 23.6217 60.3925 24.0031 60.2122 24.4393C60.0348 24.8727 59.9461 25.3349 59.9461 25.8174H62.227C62.227 25.6209 62.2671 25.4274 62.3472 25.2396C62.4273 25.0518 62.5418 24.8813 62.6906 24.7282C62.8395 24.5751 63.0198 24.4567 63.2344 24.3613C63.4462 24.266 64.03 24.2198 64.2933 24.2198C64.5566 24.2198 64.797 24.2544 65.0116 24.3238C65.2263 24.3931 65.4095 24.5144 65.5583 24.6878C65.7071 24.8611 65.8244 25.0894 65.9074 25.3754C65.9904 25.6643 66.0333 26.0254 66.0333 26.4588V26.7014C65.1719 26.7014 64.0128 26.7477 63.2401 26.843C62.4674 26.9383 61.792 27.1146 61.2082 27.3804C60.6243 27.6433 60.1636 28.0102 59.823 28.4782C59.4825 28.9491 59.3136 29.5616 59.3136 30.3185C59.3136 30.7663 59.3909 31.165 59.5483 31.5117C59.7028 31.8584 59.9203 32.1502 60.1951 32.3842C60.4698 32.6182 60.7961 32.7973 61.1738 32.9187C61.5545 33.0429 61.9609 33.1036 62.3987 33.1036C63.243 33.1036 64.2103 33.014 64.9115 32.494C65.4552 32.0895 65.8187 31.4828 66.0248 30.8414H66.1707V32.8407H68.5547V26.5108C68.5547 25.8087 68.4602 25.1905 68.2742 24.656C68.0853 24.1186 67.8163 23.6708 67.4614 23.3097H67.4586ZM65.8759 29.3651C65.7701 29.7263 65.6212 30.0412 65.4209 30.307C65.2234 30.5728 64.8857 30.7808 64.6024 30.9339C64.3191 31.087 63.7438 31.1679 63.3746 31.1679C62.9081 31.1679 62.5504 31.0495 62.3014 30.8154C62.0524 30.5814 61.9265 30.2781 61.9265 29.9054C61.9265 29.5327 62.0238 29.2554 62.2242 29.0329C62.4216 28.8076 62.6906 28.6342 63.0369 28.5129C63.3804 28.3915 64.1245 28.3078 64.5795 28.2644C65.0345 28.2211 65.5182 28.2009 66.0333 28.2009C66.0333 28.614 65.9818 29.0011 65.8788 29.3623L65.8759 29.3651Z"
    fill="#13131A" />
  <path
    d="M115.885 9.39819C115.696 8.86083 115.425 8.41303 115.073 8.0519C114.721 7.69077 114.288 7.4192 113.776 7.23141C113.267 7.04651 112.689 6.95117 112.042 6.95117C111.395 6.95117 110.428 7.0494 109.915 7.24585C109.403 7.44231 108.968 7.70521 108.619 8.03456C108.267 8.36391 108.007 8.74527 107.826 9.18151C107.649 9.61487 107.56 10.0771 107.56 10.5596H109.841C109.841 10.3631 109.881 10.1696 109.961 9.98178C110.041 9.79399 110.156 9.62354 110.305 9.47042C110.453 9.32019 110.637 9.19885 110.848 9.10351C111.06 9.00817 111.644 8.96195 111.907 8.96195C112.171 8.96195 112.411 8.99662 112.626 9.06595C112.84 9.13529 113.023 9.25663 113.172 9.42997C113.321 9.60332 113.438 9.83155 113.521 10.1176C113.604 10.4065 113.647 10.7676 113.647 11.201V11.4436C112.786 11.4436 111.627 11.4899 110.854 11.5852C110.084 11.6805 109.406 11.8568 108.822 12.1226C108.238 12.3855 107.778 12.7524 107.437 13.2204C107.096 13.6913 106.928 14.3038 106.928 15.0607C106.928 15.5085 107.005 15.9072 107.162 16.2539C107.317 16.6006 107.534 16.8924 107.809 17.1264C108.084 17.3604 108.41 17.5395 108.788 17.6609C109.168 17.7851 109.575 17.8458 110.013 17.8458C110.622 17.8458 111.332 17.7678 111.89 17.58C113.003 17.1668 113.476 16.1326 113.667 15.4999H113.788V17.5829H116.172V11.253C116.172 10.5509 116.077 9.93267 115.891 9.39819H115.885ZM113.49 14.1073C113.384 14.4685 113.235 14.7834 113.035 15.0492C112.837 15.315 112.5 15.523 112.216 15.6761C111.933 15.8292 111.358 15.9101 110.989 15.9101C110.522 15.9101 110.164 15.7917 109.915 15.5576C109.666 15.3236 109.541 15.0203 109.541 14.6476C109.541 14.2749 109.638 14.0004 109.838 13.7751C110.036 13.5498 110.305 13.3764 110.651 13.2551C110.994 13.1337 111.738 13.0499 112.194 13.0066C112.649 12.9633 113.132 12.9431 113.647 12.9431C113.647 13.3562 113.596 13.7433 113.493 14.1044L113.49 14.1073Z"
    fill="#13131A" />
</svg>